<?xml version="1.0" standalone="no"?>
<!DOCTYPE svg PUBLIC "-//W3C//DTD SVG 20010904//EN"
 "http://www.w3.org/TR/2001/REC-SVG-20010904/DTD/svg10.dtd">
<svg version="1.0" xmlns="http://www.w3.org/2000/svg"
 width="72.000000pt" height="72.000000pt" viewBox="0 0 72.000000 72.000000"
 preserveAspectRatio="xMidYMid meet">

<g transform="translate(0.000000,72.000000) scale(0.100000,-0.100000)"
fill="#000000" stroke="none">
<path d="M0 420 c0 -274 1 -300 18 -309 16 -9 16 -10 -1 -16 -12 -5 -17 -18
-17 -51 l0 -44 171 0 170 0 -6 23 c-10 30 -23 43 -75 69 -41 21 -46 27 -51 68
-7 48 -3 65 6 34 12 -35 22 -49 54 -71 26 -18 43 -21 100 -18 77 4 101 15 126
57 16 29 16 51 0 93 l-8 20 24 -20 c32 -27 66 -45 82 -45 13 0 47 -30 47 -42
0 -12 -62 6 -70 22 -5 10 -19 20 -30 23 -17 4 -20 0 -20 -32 0 -48 -21 -77
-75 -102 -30 -14 -47 -30 -54 -50 l-10 -29 170 0 169 0 0 44 c0 41 -2 45 -29
51 -15 3 -32 5 -37 4 -5 -1 -16 0 -24 1 -8 2 8 6 35 9 l50 6 3 303 2 302 -360
0 -360 0 0 -300z m460 248 c54 -28 80 -62 87 -116 4 -32 10 -42 24 -42 29 0
51 -42 44 -83 -4 -20 -14 -38 -22 -41 -11 -5 -13 -2 -9 10 3 8 3 33 0 55 -5
29 -11 39 -25 39 -14 0 -19 7 -19 30 0 17 -4 30 -10 30 -5 0 -7 6 -5 13 9 22
-34 78 -73 94 -26 11 -58 14 -110 11 -83 -6 -120 -26 -135 -74 -16 -53 -38
-95 -53 -101 -8 -3 -14 -16 -14 -28 0 -13 -5 -27 -10 -30 -7 -4 -7 -13 0 -26
6 -10 7 -19 2 -19 -5 0 -14 12 -21 26 -14 32 3 74 36 88 14 7 23 22 27 45 19
119 166 180 286 119z m5 -68 c47 -46 44 -58 -4 -19 -32 25 -50 32 -95 34 -52
2 -57 0 -106 -43 -28 -24 -53 -42 -55 -40 -6 6 66 84 90 97 11 6 46 10 78 8
49 -3 62 -8 92 -37z m-44 -30 c10 -6 19 -15 19 -21 0 -6 -4 -7 -10 -4 -5 3
-10 0 -10 -7 0 -9 -21 -13 -75 -15 -41 0 -75 3 -75 7 0 5 12 18 26 29 29 23
92 28 125 11z m-34 -75 c8 -22 1 -25 -32 -16 -28 7 -29 8 -10 19 27 15 35 15
42 -3z m110 -71 c-2 -24 -2 -43 2 -42 26 3 26 -8 0 -59 -39 -78 -81 -113 -134
-113 -33 0 -48 7 -73 31 -18 17 -29 35 -26 40 3 5 1 9 -5 9 -14 0 -46 49 -38
57 11 11 39 -20 58 -64 20 -46 43 -63 86 -63 34 1 58 17 67 48 4 13 22 39 38
58 25 28 28 37 18 47 -10 9 -11 9 -5 -2 6 -10 4 -12 -5 -6 -8 5 -11 4 -6 -3 3
-6 -12 -31 -36 -56 -35 -39 -48 -46 -79 -46 -21 0 -40 3 -43 8 -2 4 12 6 32 4
33 -3 42 2 82 44 29 30 38 44 25 40 -16 -6 -14 -1 9 23 24 25 28 36 23 66 -4
24 -2 33 5 29 6 -4 8 -25 5 -50z m-38 -20 c-7 -8 -18 -13 -26 -10 -7 3 -13 0
-13 -6 0 -6 -3 -8 -7 -4 -4 4 6 20 22 35 22 20 31 24 33 14 2 -8 -2 -21 -9
-29z m-179 -44 c6 0 10 -6 10 -12 0 -20 -47 34 -54 62 -5 17 0 13 14 -12 11
-21 25 -38 30 -38z m-70 14 c0 -8 -4 -12 -10 -9 -5 3 -10 10 -10 16 0 5 5 9
10 9 6 0 10 -7 10 -16z m350 -38 c0 -8 -6 -19 -14 -25 -18 -15 -27 6 -14 32
10 19 28 14 28 -7z m-469 -49 c-13 -13 -26 -3 -16 12 3 6 11 8 17 5 6 -4 6
-10 -1 -17z m39 -17 c0 -5 -4 -10 -10 -10 -5 0 -10 5 -10 10 0 6 5 10 10 10 6
0 10 -4 10 -10z m98 -20 c-13 -20 -28 -27 -28 -12 0 10 22 32 32 32 5 0 3 -9
-4 -20z m66 -69 c14 -14 26 -32 26 -40 -1 -11 -11 -4 -32 19 -17 19 -28 29
-24 23 4 -7 2 -13 -3 -13 -6 0 -11 17 -10 38 0 29 2 33 9 17 4 -11 20 -31 34
-44z m149 -27 c-42 -34 -54 -11 -15 29 18 18 33 39 34 47 0 8 3 0 5 -19 4 -28
-1 -38 -24 -57z m-255 65 c-2 -6 -7 -10 -12 -9 -5 1 -16 -10 -26 -25 -12 -18
-20 -23 -25 -15 -4 6 -13 9 -21 6 -8 -3 -14 -2 -14 2 0 15 24 32 46 32 13 0
26 5 29 10 8 13 28 13 23 -1z m-38 -134 c-7 -8 -20 -15 -29 -15 -11 1 -8 5 9
15 32 18 35 18 20 0z m446 0 c10 -8 14 -15 8 -15 -5 0 -19 7 -30 15 -10 8 -14
15 -8 15 5 0 19 -7 30 -15z"/>
<path d="M358 623 c7 -3 16 -2 19 1 4 3 -2 6 -13 5 -11 0 -14 -3 -6 -6z"/>
<path d="M350 36 c0 -9 7 -16 16 -16 9 0 14 5 12 12 -6 18 -28 21 -28 4z"/>
</g>
</svg>
